<?xml version="1.0" encoding="UTF-8"?>
<svg enable-background="new 0 0 32 32" version="1.1" viewBox="0 0 512 512" xml:space="preserve" xmlns="http://www.w3.org/2000/svg"><defs><linearGradient id="a" x1="-92.811" x2="-599.05" y1="547.28" y2="21.867" gradientTransform="matrix(.86915 0 0 .83743 556.67 17.688)" gradientUnits="userSpaceOnUse"><stop stop-color="#00c800" offset="0"/><stop stop-color="#fff" offset="1"/></linearGradient></defs><rect x="36" y="36" width="440" height="440" fill="url(#a)" stroke="#000" stroke-linecap="round" stroke-width="24"/><g transform="translate(1.4412e-6)"><path d="m176.5 369.46c-11.971 0-21.676 8.94-21.676 19.968s9.7047 19.968 21.676 19.968 21.676-8.94 21.676-19.968c0.013-11.016-9.7047-19.968-21.676-19.968zm65.041-46.596c-13.964 0-25.297 10.428-25.297 23.304 0 12.864 11.32 23.304 25.297 23.304 13.964 0 25.297-10.428 25.297-23.304s-11.32-23.304-25.297-23.304z" fill="#ff8000" fill-rule="evenodd"/><path d="m212.65 76.576v113.72s-4.8589 28.128-11.711 41.472c-6.865 13.344-39.9 64.428-39.9 64.428h189.95s-33.048-51.084-39.9-64.428c-6.865-13.344-11.711-41.472-11.711-41.472v-113.72h11.099v-0.576h-106.82v0.576z" fill="none"/><path d="m421.78 358.13c-38.702-68.58-51.468-87.108-68.233-113.78-16.765-26.676-24.529-33.828-24.529-63.756 0-5.604 0.0782-51.852 0.11724-80.46h16.895v-23.556h-46.674v113.72s4.8589 28.128 11.711 41.472c6.865 13.344 39.9 64.428 39.9 64.428h-189.94s33.048-51.084 39.9-64.428c6.865-13.344 11.711-41.472 11.711-41.472v-113.72h-47.964v23.568h18.198c0.0391 28.608 0.11724 74.856 0.11724 80.46 0 29.928-7.7638 37.08-24.529 63.756-16.765 26.676-29.531 45.204-68.233 113.78-38.715 68.568 11.711 77.856 31.654 77.856h121.93 24.386 121.93c19.944 0 70.369-9.288 31.654-77.868zm-245.28 51.276c-11.971 0-21.676-8.94-21.676-19.968s9.7047-19.968 21.676-19.968 21.676 8.94 21.676 19.968c0.013 11.028-9.7047 19.968-21.676 19.968zm65.041-39.948c-13.964 0-25.297-10.428-25.297-23.304s11.32-23.304 25.297-23.304c13.964 0 25.297 10.428 25.297 23.304s-11.32 23.304-25.297 23.304z" fill="#1555dc"/></g>
</svg>
